<svg width="1440" height="252" viewBox="0 0 1440 252" fill="none" xmlns="http://www.w3.org/2000/svg">
<path fill-rule="evenodd" clip-rule="evenodd" d="M-35 0L-2.45833 20.6111C30.0833 41.2222 95.1667 82.4444 160.25 116.796C225.333 151.148 290.417 178.63 355.5 151.148C420.583 123.667 485.667 41.2222 550.75 48.0926C615.833 54.963 680.917 151.148 746 199.241C811.083 247.333 876.167 247.333 941.25 206.111C1006.33 164.889 1071.42 82.4444 1136.5 61.8333C1201.58 41.2222 1266.67 82.4444 1331.75 82.4444C1396.83 82.4444 1461.92 41.2222 1494.46 20.6111L1527 0V371H1494.46C1461.92 371 1396.83 371 1331.75 371C1266.67 371 1201.58 371 1136.5 371C1071.42 371 1006.33 371 941.25 371C876.167 371 811.083 371 746 371C680.917 371 615.833 371 550.75 371C485.667 371 420.583 371 355.5 371C290.417 371 225.333 371 160.25 371C95.1667 371 30.0833 371 -2.45833 371H-35V0Z" fill="url(#paint0_linear)"/>
<path fill-rule="evenodd" clip-rule="evenodd" d="M-47 189.31L-13.9792 179.379C19.0417 169.447 85.0833 149.585 151.125 149.585C217.167 149.585 283.208 169.447 349.25 189.31C415.292 209.172 481.333 229.034 547.375 229.034C613.417 229.034 679.458 209.172 745.5 179.379C811.542 149.585 877.583 109.861 943.625 119.792C1009.67 129.723 1075.71 189.31 1141.75 199.241C1207.79 209.172 1273.83 169.447 1339.87 129.723C1405.92 89.9986 1471.96 50.2742 1504.98 30.412L1538 10.5498V278.69H1504.98C1471.96 278.69 1405.92 278.69 1339.87 278.69C1273.83 278.69 1207.79 278.69 1141.75 278.69C1075.71 278.69 1009.67 278.69 943.625 278.69C877.583 278.69 811.542 278.69 745.5 278.69C679.458 278.69 613.417 278.69 547.375 278.69C481.333 278.69 415.292 278.69 349.25 278.69C283.208 278.69 217.167 278.69 151.125 278.69C85.0833 278.69 19.0417 278.69 -13.9792 278.69H-47V189.31Z" fill="url(#paint1_linear)"/>
<defs>
<linearGradient id="paint0_linear" x1="-35" y1="185.5" x2="1527" y2="185.5" gradientUnits="userSpaceOnUse">
<stop stop-color="#C84E89"/>
<stop offset="1" stop-color="#F15F79"/>
</linearGradient>
<linearGradient id="paint1_linear" x1="-47" y1="144.62" x2="1538" y2="144.62" gradientUnits="userSpaceOnUse">
<stop stop-color="#005C97"/>
<stop offset="1" stop-color="#363795"/>
</linearGradient>
</defs>
</svg>
